<svg width="20" height="20" viewBox="0 0 20 20" fill="none" xmlns="http://www.w3.org/2000/svg">
<path d="M10 4C6.2 4 3.27 6.33 2.08 9.62C1.99 9.87 1.99 10.13 2.08 10.38C3.27 13.67 6.2 16 10 16C13.8 16 16.73 13.67 17.92 10.38C18.01 10.13 18.01 9.87 17.92 9.62C16.73 6.33 13.8 4 10 4ZM10 15C6.66 15 4.08 12.97 3.02 10C4.08 7.03 6.66 5 10 5C13.34 5 15.92 7.03 16.98 10C15.92 12.97 13.34 15 10 15ZM10 7C8.34 7 7 8.34 7 10C7 11.66 8.34 13 10 13C11.66 13 13 11.66 13 10C13 8.34 11.66 7 10 7ZM10 12C8.9 12 8 11.1 8 10C8 8.9 8.9 8 10 8C11.1 8 12 8.9 12 10C12 11.1 11.1 12 10 12Z" fill="#212121"/>
</svg>
