<svg width="20" height="20" viewBox="0 0 20 20" fill="none" xmlns="http://www.w3.org/2000/svg">
<path d="M3.85 2.15C3.66 1.95 3.34 1.95 3.15 2.15C2.95 2.34 2.95 2.66 3.15 2.85L16.15 15.85C16.34 16.05 16.66 16.05 16.85 15.85C17.05 15.66 17.05 15.34 16.85 15.15L14.55 12.85C16.1 11.94 17.23 10.53 17.92 8.62C18.01 8.37 18.01 8.11 17.92 7.86C16.73 4.57 13.8 2.24 10 2.24C8.54 2.24 7.21 2.59 6.06 3.21L3.85 2.15ZM10 3.24C13.34 3.24 15.92 5.27 16.98 8.24C16.35 10.01 15.32 11.28 13.83 12.13L12.33 10.63C12.76 10.1 13 9.43 13 8.74C13 7.08 11.66 5.74 10 5.74C9.31 5.74 8.64 5.98 8.11 6.41L6.81 5.11C7.75 4.55 8.82 3.24 10 3.24ZM2.08 7.86C2.56 6.54 3.28 5.42 4.2 4.54L4.91 5.25C4.12 6.01 3.49 7 3.02 8.24C4.08 11.21 6.66 13.24 10 13.24C10.78 13.24 11.51 13.13 12.19 12.91L13 13.72C12.08 14.06 11.08 14.24 10 14.24C6.2 14.24 3.27 11.91 2.08 8.62C1.99 8.37 1.99 8.11 2.08 7.86ZM7.03 7.37C7.01 7.49 7 7.61 7 7.74C7 9.4 8.34 10.74 10 10.74C10.13 10.74 10.25 10.73 10.37 10.71L9.31 9.65C8.61 9.43 8.07 8.89 7.85 8.19L7.03 7.37Z" fill="#212121"/>
</svg>
